<svg xmlns="http://www.w3.org/2000/svg" width="1600" height="540" viewBox="0 0 1600 540" role="img" aria-label="Infoblox Documentation Hub">
  <rect width="1600" height="540" fill="#101820"/>
  <rect x="0" y="0" width="1600" height="14" fill="#F36B21"/>
  <circle cx="1240" cy="190" r="220" fill="#F36B21" opacity=".14"/>
  <circle cx="1410" cy="384" r="170" fill="#60C7D1" opacity=".14"/>
  <g stroke="#60C7D1" stroke-width="3" opacity=".55" fill="none">
    <path d="M1010 150 C1120 80 1234 84 1330 164"/>
    <path d="M1010 270 C1132 196 1268 202 1402 292"/>
    <path d="M1040 388 C1164 326 1308 326 1448 406"/>
  </g>
  <g fill="#F36B21">
    <circle cx="1010" cy="150" r="11"/><circle cx="1330" cy="164" r="11"/>
    <circle cx="1010" cy="270" r="11"/><circle cx="1402" cy="292" r="11"/>
    <circle cx="1040" cy="388" r="11"/><circle cx="1448" cy="406" r="11"/>
  </g>
  <rect x="930" y="108" width="470" height="324" rx="10" fill="#FFFFFF" opacity=".93"/>
  <rect x="974" y="152" width="258" height="18" rx="9" fill="#101820"/>
  <rect x="974" y="196" width="332" height="12" rx="6" fill="#F36B21"/>
  <rect x="974" y="226" width="286" height="12" rx="6" fill="#D8DEE6"/>
  <rect x="974" y="282" width="128" height="78" rx="7" fill="#F7FAFC" stroke="#D8DEE6"/>
  <rect x="1132" y="282" width="128" height="78" rx="7" fill="#F7FAFC" stroke="#D8DEE6"/>
  <rect x="1290" y="282" width="66" height="78" rx="7" fill="#F7FAFC" stroke="#D8DEE6"/>
  <text x="104" y="182" font-family="Arial, Helvetica, sans-serif" font-size="82" font-weight="700" fill="#FFFFFF">Infoblox</text>
  <text x="108" y="242" font-family="Arial, Helvetica, sans-serif" font-size="34" fill="#F36B21">Documentation Hub</text>
  <text x="110" y="302" font-family="Arial, Helvetica, sans-serif" font-size="25" fill="#D8DEE6">Unify networking and security guidance for Universal DDI,</text>
  <text x="110" y="336" font-family="Arial, Helvetica, sans-serif" font-size="25" fill="#D8DEE6">Threat Defense, and Asset Insights.</text>
  <rect x="110" y="388" width="360" height="48" rx="4" fill="#F36B21"/>
  <text x="136" y="420" font-family="Arial, Helvetica, sans-serif" font-size="19" font-weight="700" fill="#101820">Future-proof critical network services</text>
</svg>
